<?xml version="1.0" standalone="no"?><!DOCTYPE svg PUBLIC "-//W3C//DTD SVG 1.1//EN" "http://www.w3.org/Graphics/SVG/1.1/DTD/svg11.dtd"><svg t="1724743098467" class="icon" viewBox="0 0 1024 1024" version="1.1" xmlns="http://www.w3.org/2000/svg" p-id="1165" xmlns:xlink="http://www.w3.org/1999/xlink" width="200" height="200"><path d="M102.677 102.678c-56.512 0-102.33 45.818-102.33 102.33s45.818 102.33 102.33 102.33 102.33-45.818 102.33-102.33-45.818-102.33-102.33-102.33z m255.827 153.495h613.983c28.281 0 51.166-22.934 51.166-51.165s-22.885-51.165-51.166-51.165H358.504c-28.256 0-51.166 22.934-51.166 51.165s22.91 51.165 51.166 51.165zM102.677 409.67C46.165 409.67 0.347 455.488 0.347 512s45.818 102.33 102.33 102.33 102.33-45.818 102.33-102.33-45.818-102.33-102.33-102.33z m869.81 51.166H358.504c-28.256 0-51.166 22.934-51.166 51.165s22.91 51.165 51.166 51.165h613.983c28.281 0 51.166-22.934 51.166-51.165s-22.885-51.165-51.166-51.165zM102.677 716.66c-56.512 0-102.33 45.819-102.33 102.33s45.818 102.331 102.33 102.331 102.33-45.818 102.33-102.33-45.818-102.33-102.33-102.33z m869.81 51.166H358.504c-28.256 0-51.166 22.934-51.166 51.165s22.91 51.165 51.166 51.165h613.983c28.281 0 51.166-22.934 51.166-51.165s-22.885-51.165-51.166-51.165z" fill="#ffffff" p-id="1166"></path></svg>