<?xml version="1.0" standalone="no"?><!DOCTYPE svg PUBLIC "-//W3C//DTD SVG 1.1//EN" "http://www.w3.org/Graphics/SVG/1.1/DTD/svg11.dtd"><svg t="1724743447771" class="icon" viewBox="0 0 1024 1024" version="1.1" xmlns="http://www.w3.org/2000/svg" p-id="4307" xmlns:xlink="http://www.w3.org/1999/xlink" width="200" height="200"><path d="M278.976 759.584h150.496a9.696 9.696 0 0 1 7.2 16.192L240 994.272a9.664 9.664 0 0 1-14.432 0L28.896 775.776a9.696 9.696 0 0 1 7.2-16.192h145.728V36.256c0-5.376 4.352-9.696 9.696-9.696h77.664c5.376 0 9.696 4.352 9.696 9.696v723.328z m558.272 0h150.496a9.696 9.696 0 0 1 7.2 16.192l-196.672 218.496a9.664 9.664 0 0 1-14.432 0l-196.672-218.496a9.696 9.696 0 0 1 7.2-16.192h145.728V36.256c0-5.376 4.352-9.696 9.696-9.696h77.664c5.376 0 9.696 4.352 9.696 9.696v723.328z" p-id="4308" fill="#f064ba"></path></svg>