<?xml version="1.0" standalone="no"?><!DOCTYPE svg PUBLIC "-//W3C//DTD SVG 1.1//EN" "http://www.w3.org/Graphics/SVG/1.1/DTD/svg11.dtd"><svg t="1725506883431" class="icon" viewBox="0 0 1024 1024" version="1.1" xmlns="http://www.w3.org/2000/svg" p-id="4446" xmlns:xlink="http://www.w3.org/1999/xlink" width="200" height="200"><path d="M988.224 294.048l-237.344-182.464a9.664 9.664 0 0 0-11.744-0.064 9.76 9.76 0 0 0-3.2 11.296l47.744 120.8-16.704 0.032L32 243.712v116.096H783.68l-47.712 120.8a9.6 9.6 0 0 0 3.168 11.296 9.6 9.6 0 0 0 11.712-0.032l237.376-182.496a9.664 9.664 0 0 0 0-15.328zM988.224 714.56l-237.376-182.464a9.664 9.664 0 0 0-14.88 11.232l47.712 120.864H32v116.064l735.008 0.064 16.672 0.064-47.712 120.8a9.696 9.696 0 0 0 14.912 11.264l237.376-182.496a9.824 9.824 0 0 0-0.032-15.392z" fill="#ff69c3" p-id="4447"></path></svg>