<?xml version="1.0" standalone="no"?><!DOCTYPE svg PUBLIC "-//W3C//DTD SVG 1.1//EN" "http://www.w3.org/Graphics/SVG/1.1/DTD/svg11.dtd"><svg t="1725507822142" class="icon" viewBox="0 0 1024 1024" version="1.1" xmlns="http://www.w3.org/2000/svg" p-id="1586" xmlns:xlink="http://www.w3.org/1999/xlink" width="200" height="200"><path d="M847.872 694.272H152.064c-4.608 0-8.192 3.584-8.192 8.192v59.904c0 4.608 3.584 8.192 8.192 8.192h605.184l-144.384 182.784c-4.096 5.12-0.512 12.8 6.144 12.8h72.704c5.12 0 9.728-2.048 12.8-6.144l168.96-214.016c16.384-20.992 1.024-51.712-25.6-51.712z" p-id="1587" fill="#ff69c3"></path><path d="M584.192 153.6c25.6 0 47.616 3.584 66.048 11.264 18.432 7.168 33.28 17.408 45.568 29.696 11.776 12.288 20.48 26.624 26.112 43.52 5.632 16.384 8.192 33.792 8.192 51.712 0 14.336-2.048 28.672-5.12 42.496-3.584 14.336-9.216 27.136-16.896 39.424-7.68 12.288-17.408 23.04-29.696 32.768-12.288 9.216-26.624 16.384-44.544 21.504l105.472 181.248h-88.064L547.84 431.616H429.568c-7.68 0-11.264 3.584-11.264 11.264v163.84H338.944v-179.2c0-25.6 5.632-44.032 16.896-55.296 11.264-11.264 29.184-16.896 54.272-16.896h176.64c11.264 0 20.992-1.536 28.672-5.12 8.192-3.584 14.336-8.192 19.456-14.336 5.12-5.632 8.704-12.288 11.264-19.968 2.56-7.68 3.584-15.36 3.584-23.552 0-15.872-5.12-30.208-15.36-41.984-10.24-11.776-26.112-17.92-48.128-17.92H338.432V153.6h245.76z" p-id="1588" fill="#ff69c3"></path></svg>