<?xml version="1.0" standalone="no"?><!DOCTYPE svg PUBLIC "-//W3C//DTD SVG 1.1//EN" "http://www.w3.org/Graphics/SVG/1.1/DTD/svg11.dtd"><svg t="1724815595740" class="icon" viewBox="0 0 1024 1024" version="1.1" xmlns="http://www.w3.org/2000/svg" p-id="4303" xmlns:xlink="http://www.w3.org/1999/xlink" width="200" height="200"><path d="M170.666667 554.666667c-25.6 0-42.666667-17.066667-42.666667-42.666667V384c0-93.866667 76.8-170.666667 170.666667-170.666667h452.266666l-55.466666-55.466666c-17.066667-17.066667-17.066667-42.666667 0-59.733334s42.666667-17.066667 59.733333 0l128 128c4.266667 4.266667 8.533333 8.533333 8.533333 12.8 4.266667 4.266667 4.266667 12.8 4.266667 17.066667 0 4.266667 0 12.8-4.266667 17.066667 0 4.266667-4.266667 8.533333-8.533333 12.8l-128 128c-17.066667 17.066667-42.666667 17.066667-59.733333 0s-17.066667-42.666667 0-59.733334L750.933333 298.666667H298.666667c-46.933333 0-85.333333 38.4-85.333334 85.333333v128c0 25.6-17.066667 42.666667-42.666666 42.666667zM298.666667 938.666667c-12.8 0-21.333333-4.266667-29.866667-12.8l-128-128c-4.266667-4.266667-8.533333-8.533333-8.533333-12.8-4.266667-4.266667-4.266667-12.8-4.266667-17.066667 0-4.266667 0-12.8 4.266667-17.066667 0-4.266667 4.266667-8.533333 8.533333-12.8l128-128c17.066667-17.066667 42.666667-17.066667 59.733333 0s17.066667 42.666667 0 59.733334L273.066667 725.333333H725.333333c46.933333 0 85.333333-38.4 85.333334-85.333333v-128c0-25.6 17.066667-42.666667 42.666666-42.666667s42.666667 17.066667 42.666667 42.666667v128c0 93.866667-76.8 170.666667-170.666667 170.666667H273.066667l55.466666 55.466666c17.066667 17.066667 17.066667 42.666667 0 59.733334-8.533333 8.533333-17.066667 12.8-29.866666 12.8z" p-id="4304" fill="#81e1f9"></path></svg>