<?xml version="1.0" standalone="no"?><!DOCTYPE svg PUBLIC "-//W3C//DTD SVG 1.1//EN" "http://www.w3.org/Graphics/SVG/1.1/DTD/svg11.dtd"><svg t="1724815665096" class="icon" viewBox="0 0 1024 1024" version="1.1" xmlns="http://www.w3.org/2000/svg" p-id="5390" xmlns:xlink="http://www.w3.org/1999/xlink" width="200" height="200"><path d="M864 480c-17.664 0-32 14.272-32 32 0 176.512-143.488 320-320 320s-320-143.488-320-320 143.488-320 320-320c96.384 0 185.728 42.432 246.208 115.456h-110.464a31.936 31.936 0 1 0 0 64h179.584c17.728 0 32-14.336 32-32V160a31.936 31.936 0 1 0-64 0v92.416A382.848 382.848 0 0 0 512 128C300.224 128 128 300.224 128 512s172.224 384 384 384 384-172.224 384-384c0-17.728-14.272-32-32-32z" p-id="5391" fill="#81e1f9"></path></svg>