<?xml version="1.0" standalone="no"?><!DOCTYPE svg PUBLIC "-//W3C//DTD SVG 1.1//EN" "http://www.w3.org/Graphics/SVG/1.1/DTD/svg11.dtd"><svg t="1748415085099" class="icon" viewBox="0 0 1129 1024" version="1.1" xmlns="http://www.w3.org/2000/svg" p-id="4587" xmlns:xlink="http://www.w3.org/1999/xlink" width="220.5078125" height="200"><path d="M540.87678834 32c62.42685844 0 122.84199655 11.8797375 181.21012032 35.34980813 59.92808999 24.19711313 112.9245675 59.39868935 159.04590373 105.31532437 0.23293594 0.28234687 47.236605 46.05074906 140.98983094 137.7216675V128.06846939c0-13.19970844 4.72930781-24.63475031 14.10321843-34.02277878 9.43743844-9.38802844 20.76660094-14.08204219 34.05807189-14.08204311 13.27735406 0 24.58534031 4.69401375 34.02983814 14.08204311 9.39508689 9.38802844 14.10321844 20.8230703 14.10321841 34.02277876V415.99152969c0 13.34088188-4.70813156 24.63475031-14.10321841 34.02277874-9.44449781 9.38802844-20.75248311 14.08910063-34.02983814 14.08910063h-288.77010001c-13.27735406 0-24.60651562-4.69401375-34.04395501-14.08204218-9.38802844-9.38802844-14.08910063-20.68189686-14.08910154-34.02983719 0-13.19970844 4.70813156-24.4935778 14.08910154-33.88160531 9.43743844-9.38802844 20.76660094-14.08204219 34.04395501-14.08204219h162.41994657c-69.68316844-67.61497875-113.29161844-110.00227969-130.83240844-127.6065975-37.36858781-37.10741719-79.81235719-65.2644431-127.45836469-84.33696282-45.85310625-18.77605687-94.12027689-28.01585251-144.72386624-28.0158525-50.61770719 0-98.88487781 9.246855-144.73798407 28.02291095-47.87894343 19.05840281-90.36506531 47.22248812-127.4724825 84.32990437-37.07212311 37.10741719-65.25032531 79.50177563-84.57695719 127.16895937-18.83958469 45.76134375-28.20643687 93.87322313-28.20643687 144.469755 0 50.4553575 9.36685219 98.5672378 28.20643687 144.32858063 19.32663281 47.66718375 47.50483406 90.06154313 84.57695719 127.02072751 37.10741719 37.25564908 79.59353812 65.41267498 127.47954095 84.33696279 45.84604781 18.91722938 94.11321844 28.16408437 144.73092561 28.16408532 50.61064875 0 98.87076-9.246855 144.72386624-28.16408532 47.6460075-18.91722938 90.08977781-47.08131469 127.4583647-84.33696279 41.60378813-41.50496719 71.9419425-89.32744125 91.00034532-143.59447969 4.2352003-12.4656075 12.41619655-21.55717125 24.42299157-27.13351876 12.03502875-5.5763475 24.30299344-6.31044938 36.84624561-2.20230469 12.56442844 4.54578188 21.71952094 12.91030311 27.42292408 24.79004158 5.79516656 12.02797031 6.41632876 24.35240437 1.90584091 36.81801091-11.53386281 32.70280782-27.12646031 64.82680498-46.81308562 96.0684694-19.69368281 31.24166343-41.94260438 58.96105219-66.75382125 83.16522467-46.12133531 46.05074906-99.11781375 81.25232531-159.04590373 105.45649688C663.71172645 980.24731811 603.30364676 991.97882375 540.87678834 991.97882375c-62.42685844 0-122.84199655-11.73150562-181.21012033-35.20157625-59.92808999-24.20417156-112.93868531-59.40574875-159.0459028-105.45649688-46.09310062-45.90957563-81.35820563-98.85664313-105.66825749-158.55885563C71.40479146 634.53494375 59.61681646 574.24686219 59.61681646 512.05999906c0-62.32803657 11.78091655-122.61611906 35.33569126-180.84307031 24.31005187-59.7022125 59.51868748-112.50104813 105.66825749-158.5588547 46.10016-45.90957563 99.11781375-81.10409343 159.0459028-105.4564978C418.04185115 43.73150562 478.44993083 32 540.87678834 32z" fill="#81e1f9" p-id="4588"></path></svg>