<?xml version="1.0" standalone="no"?><!DOCTYPE svg PUBLIC "-//W3C//DTD SVG 1.1//EN" "http://www.w3.org/Graphics/SVG/1.1/DTD/svg11.dtd"><svg t="1724743513256" class="icon" viewBox="0 0 1024 1024" version="1.1" xmlns="http://www.w3.org/2000/svg" p-id="7194" xmlns:xlink="http://www.w3.org/1999/xlink" width="200" height="200"><path d="M666.688 756.16a38.272 38.272 0 0 1-26.816-10.368 36.48 36.48 0 0 1-10.752-26.176c0-9.472 3.584-18.944 10.752-25.92l148.8-144.256h-643.904a37.632 37.632 0 0 1-38.464-37.44 37.76 37.76 0 0 1 38.464-37.44h643.072l-148.864-144.192a36.608 36.608 0 0 1-10.752-26.048c0-9.728 3.648-19.136 10.752-26.176a38.272 38.272 0 0 1 26.816-10.368c9.856 0 19.904 3.392 27.008 10.368l214.144 207.744a36.48 36.48 0 0 1 10.752 26.112c0 9.6-3.584 19.136-10.752 26.112l-214.144 207.744a38.976 38.976 0 0 1-26.112 10.304" p-id="7195" fill="#f064ba"></path></svg>