<?xml version="1.0" standalone="no"?><!DOCTYPE svg PUBLIC "-//W3C//DTD SVG 1.1//EN" "http://www.w3.org/Graphics/SVG/1.1/DTD/svg11.dtd"><svg t="1725008887089" class="icon" viewBox="0 0 1024 1024" version="1.1" xmlns="http://www.w3.org/2000/svg" p-id="6407" xmlns:xlink="http://www.w3.org/1999/xlink" width="200" height="200"><path d="M231.091892 424.12973h556.972973c19.372973 0 34.594595-15.913514 34.594594-34.594595s-15.913514-34.594595-34.594594-34.594594H231.091892c-19.372973 0-34.594595 15.913514-34.594595 34.594594s15.221622 34.594595 34.594595 34.594595z m313.427027 139.762162H231.091892c-19.372973 0-34.594595 15.913514-34.594595 34.594594 0 19.372973 15.913514 34.594595 34.594595 34.594595h313.427027c19.372973 0 34.594595-15.913514 34.594595-34.594595 0.691892-19.372973-15.221622-34.594595-34.594595-34.594594z" p-id="6408" fill="#ffffff"></path><path d="M983.178378 128H545.210811V41.513514c0-19.372973-15.913514-34.594595-34.594595-34.594595s-34.594595 15.913514-34.594594 34.594595v87.178378H40.821622c-19.372973 0-34.594595 15.913514-34.594595 34.594594s15.913514 34.594595 34.594595 34.594595h17.297297v593.643243c0 38.745946 31.135135 69.881081 69.881081 69.881081h91.32973l-52.583784 105.167568c-8.302703 17.297297-1.383784 38.054054 15.221622 47.048649s38.054054 1.383784 47.048648-15.221622l67.805406-136.302703h179.2v69.189189c0 19.372973 15.913514 34.594595 34.594594 34.594595s34.594595-15.913514 34.594595-34.594595v-69.189189h179.2l67.805405 136.302703c8.302703 17.297297 29.751351 24.216216 47.048649 15.221622 17.297297-8.302703 24.216216-29.751351 15.221621-47.048649l-52.583783-105.167568H892.540541c38.745946 0 69.881081-31.135135 69.881081-69.881081V197.881081h20.756756c19.372973 0 34.594595-15.913514 34.594595-34.594595s-15.913514-35.286486-34.594595-35.286486zM892.540541 791.524324H126.616216V197.881081H892.540541v593.643243z" p-id="6409" fill="#ffffff"></path></svg>