<?xml version="1.0" standalone="no"?><!DOCTYPE svg PUBLIC "-//W3C//DTD SVG 1.1//EN" "http://www.w3.org/Graphics/SVG/1.1/DTD/svg11.dtd"><svg t="1724815736464" class="icon" viewBox="0 0 1024 1024" version="1.1" xmlns="http://www.w3.org/2000/svg" p-id="13437" xmlns:xlink="http://www.w3.org/1999/xlink" width="200" height="200"><path d="M512.084 139.872c-245.772 0-445.008 197.928-445.008 442.064S266.312 1024 512.084 1024c245.768 0 445.008-197.924 445.008-442.064S757.856 139.872 512.084 139.872z m216.084 520.032h-250.304a22.74 22.74 0 0 1-22.752-22.752V364.1a22.748 22.748 0 0 1 22.752-22.764c12.556 0 45.512 10.188 45.512 22.764v227.536h204.792c12.556 0 22.752 32.952 22.752 45.512a22.76 22.76 0 0 1-22.752 22.756zM361.688 56.788C331.58 38.252 274.424 3.02 236.604 0.632 113.964-7.1 8.232 85.396 0.432 207.204c-2.4 37.576 28.468 95.82 43.176 127.828 57.356-136.004 175.02-238.912 318.08-278.244zM1023.58 206.048c-7.38-120.908-112.02-212.972-233.728-205.64-37.532 2.256-94.464 37.288-124.4 55.588 141.864 39.432 258.28 141.884 314.812 277.012 14.696-31.74 45.584-89.672 43.316-126.96z" p-id="13438" fill="#81e1f9"></path></svg>