<?xml version="1.0" standalone="no"?><!DOCTYPE svg PUBLIC "-//W3C//DTD SVG 1.1//EN" "http://www.w3.org/Graphics/SVG/1.1/DTD/svg11.dtd"><svg t="1724724514570" class="icon" viewBox="0 0 1024 1024" version="1.1" xmlns="http://www.w3.org/2000/svg" p-id="12353" xmlns:xlink="http://www.w3.org/1999/xlink" width="200" height="200"><path d="M516.266667 290.688v118.229333h295.296c12.714667 0 16.341333-0.042667 10.922666-0.170666h13.013334c5.12 0 10.88-0.085333 16.128 0.085333 14.848 0.469333 19.797333 8.32 20.181333 18.986667 0.213333 6.485333 0.128 105.642667-0.298667 297.514666h38.357334c32.426667 0 58.666667 26.282667 58.666666 58.666667v88.021333c0 32.384-26.282667 58.666667-58.666666 58.666667h-117.333334c-32.426667 0-58.666667-26.282667-58.666666-58.666667v-88.021333c0-32.426667 26.282667-58.666667 58.666666-58.666667h29.568l-0.128-263.765333c-5.589333-0.042667-6.613333-0.213333-10.410666-0.213333h-294.229334V725.333333h38.4c32.426667 0 58.666667 26.282667 58.666667 58.666667v88.021333c0 32.384-26.282667 58.666667-58.666667 58.666667h-117.333333c-32.426667 0-58.666667-26.282667-58.666667-58.666667v-88.021333c0-32.426667 26.282667-58.666667 58.666667-58.666667h29.653333v-263.978666H186.197333V725.333333h32.469334c32.426667 0 58.666667 26.282667 58.666666 58.666667v88.021333c0 32.384-26.282667 58.666667-58.666666 58.666667h-117.333334c-32.426667 0-58.666667-26.282667-58.666666-58.666667v-88.021333C42.666667 751.573333 68.949333 725.333333 101.333333 725.333333h35.498667v-282.666666c0-1.28 0.085333-2.56 0.256-3.754667a27.477333 27.477333 0 0 1-0.256-3.754667c0-14.506667 11.050667-26.24 24.704-26.24H469.333333V290.688h-35.2c-32.426667 0-58.666667-26.282667-58.666666-58.666667V143.957333C375.466667 111.573333 401.749333 85.333333 434.133333 85.333333h117.333334c32.426667 0 58.666667 26.282667 58.666666 58.666667v88.021333c0 32.384-26.282667 58.666667-58.666666 58.666667H516.266667zM218.666667 872.021333v-88.021333h-117.333334v88.021333h117.333334z m337.066666 0v-88.021333h-117.333333v88.021333h117.333333z m354.133334 0v-88.021333h-117.333334v88.021333h117.333334z m-358.4-640V143.957333h-117.333334v88.021334h117.333334z" fill="#ffffff" p-id="12354"></path></svg>