<?xml version="1.0" standalone="no"?><!DOCTYPE svg PUBLIC "-//W3C//DTD SVG 1.1//EN" "http://www.w3.org/Graphics/SVG/1.1/DTD/svg11.dtd"><svg t="1725613954743" class="icon" viewBox="0 0 1024 1024" version="1.1" xmlns="http://www.w3.org/2000/svg" p-id="1646" xmlns:xlink="http://www.w3.org/1999/xlink" width="200" height="200"><path d="M476.16 476.16V274.944c-1.024-20.48 15.36-36.864 35.84-36.864s36.864 16.384 35.84 36.864V476.16h201.216c20.48-1.024 36.864 15.36 36.864 35.84s-16.384 36.864-36.864 35.84H547.84v201.216c1.024 20.48-15.36 36.864-35.84 36.864s-36.864-16.384-35.84-36.864V547.84H274.944c-20.48 1.024-36.864-15.36-36.864-35.84s16.384-36.864 36.864-35.84H476.16zM0 96.256C0 43.008 43.008 0 96.256 0h830.976C980.992 0 1024 43.008 1024 96.256v830.976c0 53.248-43.008 96.256-96.256 96.256H96.256C43.008 1024 0 980.992 0 927.744V96.256z m76.8 2.56v830.976c0 12.288 9.728 22.016 22.016 22.016h825.856c12.288 0 22.016-9.728 22.016-22.016V99.328c0-12.288-9.728-22.528-22.016-22.528H94.208C81.92 76.8 71.68 86.528 71.68 98.816h5.12z" p-id="1647" fill="#ffffff"></path><path d="M467.456 475.136V274.944c0-20.48 16.384-36.864 36.864-36.864s36.864 16.384 36.864 36.864v200.192h200.192c20.48 0 36.864 16.384 36.864 36.864s-16.384 36.864-36.864 36.864h-200.192v200.192c0 20.48-16.384 36.864-36.864 36.864s-36.864-16.384-36.864-36.864v-200.192H267.264c-20.48 0-36.864-16.384-36.864-36.864s16.384-36.864 36.864-36.864h200.192z" p-id="1648" fill="#ffffff"></path><path d="M0.512 96.768C0.512 43.52 43.52 0.512 96.768 0.512H926.72c53.248 0 96.256 43.008 96.256 96.256V926.72c0 53.248-43.008 96.256-96.256 96.256H96.768C43.52 1022.976 0.512 979.968 0.512 926.72V96.768z m74.24 0V926.72c0 12.288 9.728 22.016 22.016 22.016H926.72c12.288 0 22.016-9.728 22.016-22.016V96.768c0-12.288-9.728-22.016-22.016-22.016H96.768c-12.288 0-22.016 9.728-22.016 22.016z" p-id="1649" fill="#ffffff"></path></svg>